<svg width="219" height="31" viewBox="0 0 219 31" fill="none" xmlns="http://www.w3.org/2000/svg">
<path d="M6.70328 14C6.35661 14 6.08328 13.78 5.88328 13.34L0.943281 1.64C0.876615 1.46667 0.843281 1.32 0.843281 1.2C0.843281 0.92 1.00328 0.706666 1.32328 0.559999C1.48328 0.479999 1.64328 0.439999 1.80328 0.439999C2.12328 0.439999 2.34995 0.619999 2.48328 0.98L6.86328 11.34L11.1233 0.98C11.2699 0.619999 11.4966 0.439999 11.8033 0.439999C11.9499 0.439999 12.1099 0.479999 12.2833 0.559999C12.5899 0.706666 12.7433 0.933333 12.7433 1.24C12.7433 1.38667 12.7166 1.52 12.6633 1.64L7.68328 13.34C7.46995 13.78 7.16995 14 6.78328 14H6.70328ZM18.9042 14C17.3709 14 16.2376 13.64 15.5042 12.92C14.7842 12.1867 14.4242 11.0533 14.4242 9.52V4.9C14.4242 3.36667 14.7909 2.24 15.5242 1.52C16.2576 0.786666 17.3842 0.426666 18.9042 0.439999H21.3042C22.8376 0.439999 23.9642 0.806666 24.6842 1.54C25.4176 2.26 25.7842 3.38667 25.7842 4.92V9.52C25.7842 11.0533 25.4176 12.1867 24.6842 12.92C23.9642 13.64 22.8376 14 21.3042 14H18.9042ZM21.3042 12.32C22.0376 12.32 22.5976 12.2333 22.9842 12.06C23.3842 11.8867 23.6709 11.6067 23.8442 11.22C24.0176 10.82 24.1042 10.2533 24.1042 9.52V4.92C24.1042 4.2 24.0176 3.64 23.8442 3.24C23.6709 2.84 23.3842 2.55333 22.9842 2.38C22.5842 2.20667 22.0242 2.12 21.3042 2.12H18.9042C18.1842 2.10667 17.6242 2.18667 17.2242 2.36C16.8242 2.53333 16.5376 2.82 16.3642 3.22C16.1909 3.62 16.1042 4.18 16.1042 4.9V9.52C16.1042 10.2533 16.1909 10.82 16.3642 11.22C16.5376 11.6067 16.8176 11.8867 17.2042 12.06C17.6042 12.2333 18.1709 12.32 18.9042 12.32H21.3042ZM30.295 14C30.0283 14 29.8217 13.9267 29.675 13.78C29.5283 13.6333 29.455 13.4267 29.455 13.16V1.28C29.455 1.01333 29.5283 0.806666 29.675 0.659999C29.8217 0.513333 30.0283 0.439999 30.295 0.439999H35.115C36.8617 0.439999 38.1417 0.853333 38.955 1.68C39.7817 2.49333 40.195 3.77333 40.195 5.52V8.92C40.195 10.6667 39.7817 11.9533 38.955 12.78C38.1417 13.5933 36.8617 14 35.115 14H30.295ZM35.115 12.32C35.9817 12.32 36.655 12.2133 37.135 12C37.6283 11.7867 37.9817 11.44 38.195 10.96C38.4083 10.4667 38.515 9.78667 38.515 8.92V5.52C38.515 4.65333 38.4083 3.98 38.195 3.5C37.9817 3.00667 37.6283 2.65333 37.135 2.44C36.655 2.22667 35.9817 2.12 35.115 2.12H31.135V12.32H35.115ZM47.8691 14C46.3357 14 45.2024 13.64 44.4691 12.92C43.7491 12.1867 43.3891 11.0533 43.3891 9.52V4.9C43.3891 3.36667 43.7557 2.24 44.4891 1.52C45.2224 0.786666 46.3491 0.426666 47.8691 0.439999H50.2691C51.8024 0.439999 52.9291 0.806666 53.6491 1.54C54.3824 2.26 54.7491 3.38667 54.7491 4.92V9.52C54.7491 11.0533 54.3824 12.1867 53.6491 12.92C52.9291 13.64 51.8024 14 50.2691 14H47.8691ZM50.2691 12.32C51.0024 12.32 51.5624 12.2333 51.9491 12.06C52.3491 11.8867 52.6357 11.6067 52.8091 11.22C52.9824 10.82 53.0691 10.2533 53.0691 9.52V4.92C53.0691 4.2 52.9824 3.64 52.8091 3.24C52.6357 2.84 52.3491 2.55333 51.9491 2.38C51.5491 2.20667 50.9891 2.12 50.2691 2.12H47.8691C47.1491 2.10667 46.5891 2.18667 46.1891 2.36C45.7891 2.53333 45.5024 2.82 45.3291 3.22C45.1557 3.62 45.0691 4.18 45.0691 4.9V9.52C45.0691 10.2533 45.1557 10.82 45.3291 11.22C45.5024 11.6067 45.7824 11.8867 46.1691 12.06C46.5691 12.2333 47.1357 12.32 47.8691 12.32H50.2691ZM59.2598 14C58.6998 14 58.4198 13.72 58.4198 13.16V1.28C58.4198 0.719999 58.6998 0.439999 59.2598 0.439999C59.8198 0.439999 60.0998 0.719999 60.0998 1.28V12.32H65.6398C66.1998 12.32 66.4798 12.6 66.4798 13.16C66.4798 13.72 66.1998 14 65.6398 14H59.2598ZM79.5802 12.82C79.6335 12.94 79.6602 13.0733 79.6602 13.22C79.6602 13.54 79.4802 13.7733 79.1202 13.92C79.0002 13.9733 78.8668 14 78.7202 14C78.4002 14 78.1668 13.82 78.0202 13.46L76.9402 10.84H70.7202L69.6802 13.46C69.5335 13.82 69.3002 14 68.9802 14C68.8468 14 68.7202 13.9733 68.6002 13.92C68.2268 13.7867 68.0402 13.5533 68.0402 13.22C68.0402 13.0733 68.0668 12.94 68.1202 12.82L72.8802 1.1C73.0802 0.659999 73.3935 0.439999 73.8202 0.439999H73.8602C74.3002 0.466666 74.5935 0.686666 74.7402 1.1L79.5802 12.82ZM71.3802 9.16H76.2602L73.7602 3.1L71.3802 9.16ZM92.3605 10.72C92.6405 10.72 92.8538 10.8 93.0005 10.96C93.1605 11.1067 93.2205 11.32 93.1805 11.6C93.0205 12.3867 92.6671 12.9867 92.1205 13.4C91.5738 13.8 90.8471 14 89.9405 14H82.5605C82.2938 14 82.0871 13.9267 81.9405 13.78C81.8071 13.6333 81.7405 13.4267 81.7405 13.16C81.7405 12.9867 81.8471 12.7467 82.0605 12.44L89.9405 2.12H84.7605C84.3338 2.12 84.0005 2.18667 83.7605 2.32C83.5205 2.44 83.3538 2.64667 83.2605 2.94C83.1938 3.20667 83.0938 3.40667 82.9605 3.54C82.8271 3.66 82.6338 3.72 82.3805 3.72C82.1271 3.72 81.9205 3.66 81.7605 3.54C81.6138 3.40667 81.5405 3.23333 81.5405 3.02C81.5405 2.94 81.5471 2.88 81.5605 2.84C81.7205 2.06667 82.0671 1.47333 82.6005 1.06C83.1471 0.646666 83.8671 0.439999 84.7605 0.439999H91.4405C91.7205 0.439999 91.9271 0.513333 92.0605 0.659999C92.2071 0.806666 92.2805 1.01333 92.2805 1.28C92.2805 1.50667 92.1738 1.76 91.9605 2.04L84.0805 12.32H89.9405C90.3938 12.32 90.7405 12.26 90.9805 12.14C91.2205 12.0067 91.3805 11.7933 91.4605 11.5C91.5405 11.2333 91.6471 11.04 91.7805 10.92C91.9138 10.7867 92.1071 10.72 92.3605 10.72ZM97.1895 14C96.9762 14 96.7829 13.9133 96.6095 13.74C96.4362 13.5667 96.3495 13.3733 96.3495 13.16V1.28C96.3495 1.05333 96.4362 0.859999 96.6095 0.7C96.7829 0.526666 96.9762 0.439999 97.1895 0.439999C97.4162 0.439999 97.6095 0.526666 97.7695 0.7C97.9429 0.859999 98.0295 1.05333 98.0295 1.28V6.3H106.19V1.28C106.19 1.05333 106.27 0.859999 106.43 0.7C106.603 0.526666 106.803 0.439999 107.03 0.439999C107.256 0.439999 107.45 0.526666 107.61 0.7C107.783 0.859999 107.87 1.05333 107.87 1.28V13.16C107.87 13.3733 107.783 13.5667 107.61 13.74C107.45 13.9133 107.256 14 107.03 14C106.803 14 106.603 13.92 106.43 13.76C106.27 13.5867 106.19 13.3867 106.19 13.16V7.98H98.0295V13.16C98.0295 13.3733 97.9429 13.5667 97.7695 13.74C97.6095 13.9133 97.4162 14 97.1895 14ZM115.413 14C114.266 14 113.373 13.7733 112.733 13.32C112.106 12.8533 111.713 12.14 111.553 11.18C111.526 10.9 111.586 10.6867 111.733 10.54C111.88 10.38 112.093 10.3 112.373 10.3C112.64 10.3 112.84 10.3667 112.973 10.5C113.106 10.62 113.2 10.8267 113.253 11.12C113.346 11.5733 113.553 11.8867 113.873 12.06C114.206 12.2333 114.72 12.32 115.413 12.32H118.293C118.88 12.32 119.326 12.2533 119.633 12.12C119.953 11.9867 120.18 11.7667 120.313 11.46C120.446 11.14 120.513 10.6933 120.513 10.12C120.513 9.26667 120.353 8.68 120.033 8.36C119.713 8.04 119.133 7.88 118.293 7.88H115.813C114.56 7.88 113.626 7.57333 113.013 6.96C112.4 6.34667 112.093 5.40667 112.093 4.14C112.093 2.88667 112.393 1.96 112.993 1.36C113.606 0.746666 114.54 0.439999 115.793 0.439999H118.173C120.28 0.439999 121.493 1.32 121.813 3.08C121.853 3.36 121.8 3.58 121.653 3.74C121.506 3.88667 121.286 3.96 120.993 3.96C120.726 3.96 120.526 3.89333 120.393 3.76C120.26 3.62667 120.173 3.42 120.133 3.14C120.026 2.75333 119.826 2.48667 119.533 2.34C119.24 2.19333 118.786 2.12 118.173 2.12H115.793C115.246 2.12 114.826 2.18 114.533 2.3C114.253 2.42 114.053 2.62667 113.933 2.92C113.826 3.2 113.773 3.60667 113.773 4.14C113.773 4.68667 113.833 5.10667 113.953 5.4C114.073 5.68 114.273 5.88667 114.553 6.02C114.846 6.14 115.266 6.2 115.813 6.2H118.293C119.613 6.2 120.593 6.52 121.233 7.16C121.873 7.8 122.193 8.78667 122.193 10.12C122.193 11.44 121.873 12.42 121.233 13.06C120.593 13.6867 119.613 14 118.293 14H115.413ZM134.621 12.54C134.767 12.7267 134.841 12.9133 134.841 13.1C134.841 13.34 134.727 13.5467 134.501 13.72C134.341 13.8667 134.154 13.94 133.941 13.94C133.701 13.94 133.494 13.8267 133.321 13.6L128.421 7.54L127.561 8.44V13.16C127.561 13.4267 127.487 13.6333 127.341 13.78C127.194 13.9267 126.987 14 126.721 14C126.454 14 126.247 13.9267 126.101 13.78C125.954 13.6333 125.881 13.4267 125.881 13.16V1.28C125.881 1.01333 125.954 0.806666 126.101 0.659999C126.247 0.513333 126.454 0.439999 126.721 0.439999C126.987 0.439999 127.194 0.513333 127.341 0.659999C127.487 0.806666 127.561 1.01333 127.561 1.28V6.04L132.661 0.759999C132.861 0.559999 133.061 0.459999 133.261 0.459999C133.461 0.459999 133.654 0.553332 133.841 0.739999C134.041 0.94 134.141 1.14 134.141 1.34C134.141 1.54 134.047 1.73333 133.861 1.92L129.621 6.32L134.621 12.54ZM146.939 0.639999C147.232 0.826666 147.379 1.04667 147.379 1.3C147.379 1.46 147.319 1.62 147.199 1.78L142.439 9.08V13.16C142.439 13.4267 142.366 13.6333 142.219 13.78C142.072 13.9267 141.866 14 141.599 14C141.332 14 141.126 13.9267 140.979 13.78C140.832 13.6333 140.759 13.4267 140.759 13.16V9.08L136.179 1.78C136.072 1.59333 136.019 1.42667 136.019 1.28C136.019 1 136.159 0.773333 136.439 0.6C136.626 0.493333 136.792 0.439999 136.939 0.439999C137.192 0.439999 137.412 0.58 137.599 0.86L141.599 7.28L145.799 0.86C145.959 0.593333 146.172 0.459999 146.439 0.459999C146.599 0.459999 146.766 0.519999 146.939 0.639999ZM166.553 12.82C166.606 12.94 166.633 13.0733 166.633 13.22C166.633 13.54 166.453 13.7733 166.093 13.92C165.973 13.9733 165.839 14 165.693 14C165.373 14 165.139 13.82 164.993 13.46L163.913 10.84H157.693L156.653 13.46C156.506 13.82 156.273 14 155.953 14C155.819 14 155.693 13.9733 155.573 13.92C155.199 13.7867 155.013 13.5533 155.013 13.22C155.013 13.0733 155.039 12.94 155.093 12.82L159.853 1.1C160.053 0.659999 160.366 0.439999 160.793 0.439999H160.833C161.273 0.466666 161.566 0.686666 161.713 1.1L166.553 12.82ZM158.353 9.16H163.233L160.733 3.1L158.353 9.16ZM178.833 4.82C178.833 5.87333 178.586 6.72 178.093 7.36C177.6 8 176.886 8.39333 175.953 8.54L178.573 12.9C178.653 13.0333 178.693 13.18 178.693 13.34C178.693 13.6333 178.546 13.8667 178.253 14.04C178.08 14.1467 177.926 14.2 177.793 14.2C177.526 14.2 177.3 14.0533 177.113 13.76L174.073 8.7L174.013 8.6H171.213V13.16C171.213 13.4267 171.14 13.6333 170.993 13.78C170.846 13.9267 170.64 14 170.373 14C170.106 14 169.9 13.9267 169.753 13.78C169.606 13.6333 169.533 13.4267 169.533 13.16V1.28C169.533 1.01333 169.606 0.806666 169.753 0.659999C169.9 0.513333 170.106 0.439999 170.373 0.439999H175.053C176.28 0.439999 177.213 0.766666 177.853 1.42C178.506 2.06 178.833 2.99333 178.833 4.22V4.82ZM177.153 4.22C177.153 3.47333 176.993 2.94 176.673 2.62C176.353 2.28667 175.813 2.12 175.053 2.12H171.213V6.92H175.053C175.813 6.92 176.353 6.76 176.673 6.44C176.993 6.12 177.153 5.58 177.153 4.82V4.22ZM185.703 14C185.143 14 184.863 13.72 184.863 13.16V2.14H180.983C180.423 2.14 180.143 1.86 180.143 1.3C180.143 0.739999 180.423 0.459999 180.983 0.459999H190.423C190.983 0.459999 191.263 0.739999 191.263 1.3C191.263 1.86 190.983 2.14 190.423 2.14H186.543V13.16C186.543 13.4267 186.469 13.6333 186.323 13.78C186.176 13.9267 185.969 14 185.703 14ZM201.948 12.32C202.214 12.32 202.421 12.3933 202.568 12.54C202.714 12.6867 202.788 12.8933 202.788 13.16C202.788 13.4267 202.714 13.6333 202.568 13.78C202.421 13.9267 202.214 14 201.948 14H194.768C194.501 14 194.294 13.9267 194.148 13.78C194.001 13.6333 193.928 13.4267 193.928 13.16V1.28C193.928 1.01333 194.001 0.806666 194.148 0.659999C194.294 0.513333 194.501 0.439999 194.768 0.439999H201.948C202.214 0.439999 202.421 0.513333 202.568 0.659999C202.714 0.806666 202.788 1.01333 202.788 1.28C202.788 1.54667 202.714 1.75333 202.568 1.9C202.421 2.04667 202.214 2.12 201.948 2.12H195.608V6.32H199.588C199.854 6.32 200.061 6.39333 200.208 6.54C200.354 6.68667 200.428 6.89333 200.428 7.16C200.428 7.42667 200.354 7.63333 200.208 7.78C200.061 7.92667 199.854 8 199.588 8H195.608V12.32H201.948ZM217.878 0.439999C218.332 0.439999 218.558 0.719999 218.558 1.28V13.16C218.558 13.4267 218.485 13.6333 218.338 13.78C218.192 13.9267 217.985 14 217.718 14C217.452 14 217.245 13.9267 217.098 13.78C216.952 13.6333 216.878 13.4267 216.878 13.16V3.9L213.198 9.32C213.065 9.50667 212.918 9.64667 212.758 9.74C212.598 9.82 212.405 9.86 212.178 9.86C212.018 9.86 211.872 9.82 211.738 9.74C211.618 9.64667 211.492 9.50667 211.358 9.32L207.658 3.88V13.16C207.658 13.4267 207.585 13.6333 207.438 13.78C207.292 13.9267 207.085 14 206.818 14C206.552 14 206.345 13.9267 206.198 13.78C206.052 13.6333 205.978 13.4267 205.978 13.16V1.28C205.978 1.01333 206.052 0.806666 206.198 0.659999C206.345 0.513333 206.552 0.439999 206.818 0.439999C207.192 0.439999 207.498 0.619999 207.738 0.98L212.298 7.84L216.858 0.98C217.085 0.619999 217.425 0.439999 217.878 0.439999ZM6.23629 30C5.46962 30 4.90296 29.82 4.53629 29.46C4.17629 29.0933 3.99629 28.5267 3.99629 27.76V25.46C3.99629 24.6933 4.17629 24.1267 4.53629 23.76C4.90296 23.3933 5.46629 23.2133 6.22629 23.22H7.43629C8.06296 23.22 8.53962 23.35 8.86629 23.61C9.19962 23.87 9.39296 24.2767 9.44629 24.83C9.46629 24.97 9.43962 25.0767 9.36629 25.15C9.29296 25.2233 9.18629 25.26 9.04629 25.26C8.91296 25.26 8.80962 25.2267 8.73629 25.16C8.66962 25.0867 8.62629 24.98 8.60629 24.84C8.57296 24.54 8.46962 24.3367 8.29629 24.23C8.12296 24.1167 7.83629 24.06 7.43629 24.06H6.22629C5.86629 24.0533 5.58629 24.0933 5.38629 24.18C5.18629 24.2667 5.04296 24.41 4.95629 24.61C4.87629 24.81 4.83629 25.0933 4.83629 25.46V27.76C4.83629 28.1267 4.87962 28.41 4.96629 28.61C5.05296 28.8033 5.19296 28.9433 5.38629 29.03C5.58629 29.1167 5.86962 29.16 6.23629 29.16H7.43629C7.75629 29.16 7.99962 29.1267 8.16629 29.06C8.33962 28.9867 8.45962 28.8667 8.52629 28.7C8.59962 28.5267 8.63629 28.28 8.63629 27.96V27.49L7.85629 27.48C7.57629 27.48 7.43629 27.34 7.43629 27.06C7.43629 26.9267 7.47296 26.8233 7.54629 26.75C7.61962 26.6767 7.72296 26.64 7.85629 26.64L9.05629 26.65C9.18962 26.65 9.29296 26.6867 9.36629 26.76C9.43962 26.8333 9.47629 26.9367 9.47629 27.07V27.96C9.47629 28.6667 9.30962 29.1833 8.97629 29.51C8.64962 29.8367 8.13629 30 7.43629 30H6.23629ZM27.3887 29.41C27.4154 29.47 27.4287 29.5367 27.4287 29.61C27.4287 29.77 27.3387 29.8867 27.1587 29.96C27.0987 29.9867 27.032 30 26.9587 30C26.7987 30 26.682 29.91 26.6087 29.73L26.0687 28.42H22.9587L22.4387 29.73C22.3654 29.91 22.2487 30 22.0887 30C22.022 30 21.9587 29.9867 21.8987 29.96C21.712 29.8933 21.6187 29.7767 21.6187 29.61C21.6187 29.5367 21.632 29.47 21.6587 29.41L24.0387 23.55C24.1387 23.33 24.2954 23.22 24.5087 23.22H24.5287C24.7487 23.2333 24.8954 23.3433 24.9687 23.55L27.3887 29.41ZM23.2887 27.58H25.7287L24.4787 24.55L23.2887 27.58ZM45.8289 23.22C46.0555 23.22 46.1689 23.36 46.1689 23.64V29.58C46.1689 29.7133 46.1322 29.8167 46.0589 29.89C45.9855 29.9633 45.8822 30 45.7489 30C45.6155 30 45.5122 29.9633 45.4389 29.89C45.3655 29.8167 45.3289 29.7133 45.3289 29.58V24.95L43.4889 27.66C43.4222 27.7533 43.3489 27.8233 43.2689 27.87C43.1889 27.91 43.0922 27.93 42.9789 27.93C42.8989 27.93 42.8255 27.91 42.7589 27.87C42.6989 27.8233 42.6355 27.7533 42.5689 27.66L40.7189 24.94V29.58C40.7189 29.7133 40.6822 29.8167 40.6089 29.89C40.5355 29.9633 40.4322 30 40.2989 30C40.1655 30 40.0622 29.9633 39.9889 29.89C39.9155 29.8167 39.8789 29.7133 39.8789 29.58V23.64C39.8789 23.5067 39.9155 23.4033 39.9889 23.33C40.0622 23.2567 40.1655 23.22 40.2989 23.22C40.4855 23.22 40.6389 23.31 40.7589 23.49L43.0389 26.92L45.3189 23.49C45.4322 23.31 45.6022 23.22 45.8289 23.22ZM63.258 29.16C63.3913 29.16 63.4947 29.1967 63.568 29.27C63.6413 29.3433 63.678 29.4467 63.678 29.58C63.678 29.7133 63.6413 29.8167 63.568 29.89C63.4947 29.9633 63.3913 30 63.258 30H59.668C59.5347 30 59.4313 29.9633 59.358 29.89C59.2847 29.8167 59.248 29.7133 59.248 29.58V23.64C59.248 23.5067 59.2847 23.4033 59.358 23.33C59.4313 23.2567 59.5347 23.22 59.668 23.22H63.258C63.3913 23.22 63.4947 23.2567 63.568 23.33C63.6413 23.4033 63.678 23.5067 63.678 23.64C63.678 23.7733 63.6413 23.8767 63.568 23.95C63.4947 24.0233 63.3913 24.06 63.258 24.06H60.088V26.16H62.078C62.2113 26.16 62.3147 26.1967 62.388 26.27C62.4613 26.3433 62.498 26.4467 62.498 26.58C62.498 26.7133 62.4613 26.8167 62.388 26.89C62.3147 26.9633 62.2113 27 62.078 27H60.088V29.16H63.258ZM76.1534 30.84C75.8734 30.84 75.7334 30.7 75.7334 30.42C75.7334 30.14 75.8734 30 76.1534 30H78.6834C78.9634 30 79.1034 30.14 79.1034 30.42C79.1034 30.7 78.9634 30.84 78.6834 30.84H76.1534ZM92.3614 30C92.228 30 92.1247 29.9633 92.0514 29.89C91.978 29.8167 91.9414 29.7133 91.9414 29.58V23.64C91.9414 23.5067 91.978 23.4033 92.0514 23.33C92.1247 23.2567 92.228 23.22 92.3614 23.22H94.7714C95.6447 23.22 96.2847 23.4267 96.6914 23.84C97.1047 24.2467 97.3114 24.8867 97.3114 25.76V27.46C97.3114 28.3333 97.1047 28.9767 96.6914 29.39C96.2847 29.7967 95.6447 30 94.7714 30H92.3614ZM94.7714 29.16C95.2047 29.16 95.5414 29.1067 95.7814 29C96.028 28.8933 96.2047 28.72 96.3114 28.48C96.418 28.2333 96.4714 27.8933 96.4714 27.46V25.76C96.4714 25.3267 96.418 24.99 96.3114 24.75C96.2047 24.5033 96.028 24.3267 95.7814 24.22C95.5414 24.1133 95.2047 24.06 94.7714 24.06H92.7814V29.16H94.7714ZM114.158 29.16C114.292 29.16 114.395 29.1967 114.468 29.27C114.542 29.3433 114.578 29.4467 114.578 29.58C114.578 29.7133 114.542 29.8167 114.468 29.89C114.395 29.9633 114.292 30 114.158 30H110.568C110.435 30 110.332 29.9633 110.258 29.89C110.185 29.8167 110.148 29.7133 110.148 29.58V23.64C110.148 23.5067 110.185 23.4033 110.258 23.33C110.332 23.2567 110.435 23.22 110.568 23.22H114.158C114.292 23.22 114.395 23.2567 114.468 23.33C114.542 23.4033 114.578 23.5067 114.578 23.64C114.578 23.7733 114.542 23.8767 114.468 23.95C114.395 24.0233 114.292 24.06 114.158 24.06H110.988V26.16H112.978C113.112 26.16 113.215 26.1967 113.288 26.27C113.362 26.3433 113.398 26.4467 113.398 26.58C113.398 26.7133 113.362 26.8167 113.288 26.89C113.215 26.9633 113.112 27 112.978 27H110.988V29.16H114.158ZM128.864 30C128.29 30 127.844 29.8867 127.524 29.66C127.21 29.4267 127.014 29.07 126.934 28.59C126.92 28.45 126.95 28.3433 127.024 28.27C127.097 28.19 127.204 28.15 127.344 28.15C127.477 28.15 127.577 28.1833 127.644 28.25C127.71 28.31 127.757 28.4133 127.784 28.56C127.83 28.7867 127.934 28.9433 128.094 29.03C128.26 29.1167 128.517 29.16 128.864 29.16H130.304C130.597 29.16 130.82 29.1267 130.974 29.06C131.134 28.9933 131.247 28.8833 131.314 28.73C131.38 28.57 131.414 28.3467 131.414 28.06C131.414 27.6333 131.334 27.34 131.174 27.18C131.014 27.02 130.724 26.94 130.304 26.94H129.064C128.437 26.94 127.97 26.7867 127.664 26.48C127.357 26.1733 127.204 25.7033 127.204 25.07C127.204 24.4433 127.354 23.98 127.654 23.68C127.96 23.3733 128.427 23.22 129.054 23.22H130.244C131.297 23.22 131.904 23.66 132.064 24.54C132.084 24.68 132.057 24.79 131.984 24.87C131.91 24.9433 131.8 24.98 131.654 24.98C131.52 24.98 131.42 24.9467 131.354 24.88C131.287 24.8133 131.244 24.71 131.224 24.57C131.17 24.3767 131.07 24.2433 130.924 24.17C130.777 24.0967 130.55 24.06 130.244 24.06H129.054C128.78 24.06 128.57 24.09 128.424 24.15C128.284 24.21 128.184 24.3133 128.124 24.46C128.07 24.6 128.044 24.8033 128.044 25.07C128.044 25.3433 128.074 25.5533 128.134 25.7C128.194 25.84 128.294 25.9433 128.434 26.01C128.58 26.07 128.79 26.1 129.064 26.1H130.304C130.964 26.1 131.454 26.26 131.774 26.58C132.094 26.9 132.254 27.3933 132.254 28.06C132.254 28.72 132.094 29.21 131.774 29.53C131.454 29.8433 130.964 30 130.304 30H128.864ZM145.518 30C145.371 30 145.264 29.9667 145.198 29.9C145.131 29.8333 145.098 29.7267 145.098 29.58V23.65C145.098 23.5033 145.131 23.3967 145.198 23.33C145.264 23.2633 145.371 23.23 145.518 23.23C145.664 23.23 145.771 23.2633 145.838 23.33C145.904 23.3967 145.938 23.5033 145.938 23.65V29.58C145.938 29.7267 145.904 29.8333 145.838 29.9C145.771 29.9667 145.664 30 145.518 30ZM161.018 30C160.251 30 159.684 29.82 159.318 29.46C158.958 29.0933 158.778 28.5267 158.778 27.76V25.46C158.778 24.6933 158.958 24.1267 159.318 23.76C159.684 23.3933 160.248 23.2133 161.008 23.22H162.218C162.844 23.22 163.321 23.35 163.648 23.61C163.981 23.87 164.174 24.2767 164.228 24.83C164.248 24.97 164.221 25.0767 164.148 25.15C164.074 25.2233 163.968 25.26 163.828 25.26C163.694 25.26 163.591 25.2267 163.518 25.16C163.451 25.0867 163.408 24.98 163.388 24.84C163.354 24.54 163.251 24.3367 163.078 24.23C162.904 24.1167 162.618 24.06 162.218 24.06H161.008C160.648 24.0533 160.368 24.0933 160.168 24.18C159.968 24.2667 159.824 24.41 159.738 24.61C159.658 24.81 159.618 25.0933 159.618 25.46V27.76C159.618 28.1267 159.661 28.41 159.748 28.61C159.834 28.8033 159.974 28.9433 160.168 29.03C160.368 29.1167 160.651 29.16 161.018 29.16H162.218C162.538 29.16 162.781 29.1267 162.948 29.06C163.121 28.9867 163.241 28.8667 163.308 28.7C163.381 28.5267 163.418 28.28 163.418 27.96V27.49L162.638 27.48C162.358 27.48 162.218 27.34 162.218 27.06C162.218 26.9267 162.254 26.8233 162.328 26.75C162.401 26.6767 162.504 26.64 162.638 26.64L163.838 26.65C163.971 26.65 164.074 26.6867 164.148 26.76C164.221 26.8333 164.258 26.9367 164.258 27.07V27.96C164.258 28.6667 164.091 29.1833 163.758 29.51C163.431 29.8367 162.918 30 162.218 30H161.018ZM182.07 23.22C182.203 23.22 182.307 23.2567 182.38 23.33C182.453 23.4033 182.49 23.5067 182.49 23.64V29.58C182.49 29.7133 182.453 29.8167 182.38 29.89C182.307 29.9633 182.203 30 182.07 30C181.99 30 181.917 29.98 181.85 29.94C181.783 29.9 181.717 29.8367 181.65 29.75L177.84 24.84V29.58C177.84 29.7133 177.803 29.8167 177.73 29.89C177.657 29.9633 177.553 30 177.42 30C177.287 30 177.183 29.9633 177.11 29.89C177.037 29.8167 177 29.7133 177 29.58V23.64C177 23.5067 177.037 23.4033 177.11 23.33C177.183 23.2567 177.287 23.22 177.42 23.22C177.5 23.22 177.57 23.24 177.63 23.28C177.697 23.32 177.767 23.3833 177.84 23.47L181.65 28.38V23.64C181.65 23.5067 181.687 23.4033 181.76 23.33C181.833 23.2567 181.937 23.22 182.07 23.22ZM199.578 29.16C199.712 29.16 199.815 29.1967 199.888 29.27C199.962 29.3433 199.998 29.4467 199.998 29.58C199.998 29.7133 199.962 29.8167 199.888 29.89C199.815 29.9633 199.712 30 199.578 30H195.988C195.855 30 195.752 29.9633 195.678 29.89C195.605 29.8167 195.568 29.7133 195.568 29.58V23.64C195.568 23.5067 195.605 23.4033 195.678 23.33C195.752 23.2567 195.855 23.22 195.988 23.22H199.578C199.712 23.22 199.815 23.2567 199.888 23.33C199.962 23.4033 199.998 23.5067 199.998 23.64C199.998 23.7733 199.962 23.8767 199.888 23.95C199.815 24.0233 199.712 24.06 199.578 24.06H196.408V26.16H198.398C198.532 26.16 198.635 26.1967 198.708 26.27C198.782 26.3433 198.818 26.4467 198.818 26.58C198.818 26.7133 198.782 26.8167 198.708 26.89C198.635 26.9633 198.532 27 198.398 27H196.408V29.16H199.578ZM217.244 25.41C217.244 25.9367 217.12 26.36 216.874 26.68C216.627 27 216.27 27.1967 215.804 27.27L217.114 29.45C217.154 29.5167 217.174 29.59 217.174 29.67C217.174 29.8167 217.1 29.9333 216.954 30.02C216.867 30.0733 216.79 30.1 216.724 30.1C216.59 30.1 216.477 30.0267 216.384 29.88L214.864 27.35L214.834 27.3H213.434V29.58C213.434 29.7133 213.397 29.8167 213.324 29.89C213.25 29.9633 213.147 30 213.014 30C212.88 30 212.777 29.9633 212.704 29.89C212.63 29.8167 212.594 29.7133 212.594 29.58V23.64C212.594 23.5067 212.63 23.4033 212.704 23.33C212.777 23.2567 212.88 23.22 213.014 23.22H215.354C215.967 23.22 216.434 23.3833 216.754 23.71C217.08 24.03 217.244 24.4967 217.244 25.11V25.41ZM216.404 25.11C216.404 24.7367 216.324 24.47 216.164 24.31C216.004 24.1433 215.734 24.06 215.354 24.06H213.434V26.46H215.354C215.734 26.46 216.004 26.38 216.164 26.22C216.324 26.06 216.404 25.79 216.404 25.41V25.11Z" fill="#EFEFEF"/>
</svg>
